<svg width="583" height="148" viewBox="0 0 583 148" fill="none" xmlns="http://www.w3.org/2000/svg">
<g clip-path="url(#clip0_535_29)">
<path fill-rule="evenodd" clip-rule="evenodd" d="M325.149 22C312.764 22 302.725 32.3534 302.725 45.125V102.938C302.725 115.709 312.764 126.063 325.149 126.063H560.603C572.988 126.063 583.028 115.709 583.028 102.938V45.125C583.028 32.3534 572.988 22 560.603 22H325.149ZM378.867 50.3975C379.955 50.3975 380.855 50.7644 381.567 51.4983C382.278 52.2321 382.634 53.1818 382.634 54.3473V94.3628C382.634 95.4851 382.278 96.4348 381.567 97.2118C380.855 97.9456 379.955 98.3125 378.867 98.3125C377.778 98.3125 376.878 97.9456 376.167 97.2118C375.474 96.4557 375.119 95.5361 375.1 94.4531C374.586 95.0273 373.958 95.6016 373.216 96.1758C372.211 96.9528 371.018 97.6219 369.637 98.183C368.297 98.701 366.832 98.96 365.242 98.96C362.353 98.96 359.737 98.2046 357.393 96.6938C355.049 95.1398 353.186 93.0246 351.805 90.3483C350.466 87.6288 349.796 84.5208 349.796 81.0243C349.796 77.4846 350.466 74.3766 351.805 71.7003C353.186 68.9808 355.028 66.8656 357.33 65.3548C359.633 63.8008 362.186 63.0238 364.991 63.0238C366.79 63.0238 368.444 63.3044 369.951 63.8655C371.458 64.4267 372.755 65.1389 373.844 66.0023C374.308 66.3571 374.727 66.7157 375.099 67.0778V54.3473C375.099 53.2249 375.455 52.2969 376.167 51.563C376.878 50.786 377.778 50.3975 378.867 50.3975ZM366.184 91.8375C368.025 91.8375 369.637 91.3627 371.018 90.413C372.4 89.4634 373.467 88.1684 374.22 86.528C375.016 84.8877 375.413 83.0531 375.413 81.0243C375.413 78.9523 375.016 77.0961 374.22 75.4558C373.467 73.8154 372.4 72.5204 371.018 71.5708C369.637 70.6211 368.025 70.1463 366.184 70.1463C364.384 70.1463 362.793 70.6211 361.412 71.5708C360.03 72.5204 358.942 73.8154 358.147 75.4558C357.393 77.0961 357.016 78.9523 357.016 81.0243C357.016 83.0531 357.393 84.8877 358.147 86.528C358.942 88.1684 360.03 89.4634 361.412 90.413C362.793 91.3627 364.384 91.8375 366.184 91.8375ZM397.887 94.3628C397.887 95.4851 397.531 96.4348 396.82 97.2118C396.108 97.9456 395.208 98.3125 394.12 98.3125C393.031 98.3125 392.131 97.9456 391.42 97.2118C390.708 96.4348 390.352 95.4851 390.352 94.3628V67.621C390.352 66.4987 390.708 65.5706 391.42 64.8368C392.131 64.0598 393.031 63.6713 394.12 63.6713C395.208 63.6713 396.108 64.0598 396.82 64.8368C397.531 65.5706 397.887 66.4987 397.887 67.621V94.3628ZM394.057 59.4625C392.634 59.4625 391.629 59.2251 391.043 58.7503C390.457 58.2754 390.164 57.4337 390.164 56.225V54.9948C390.164 53.7429 390.478 52.9012 391.106 52.4695C391.776 51.9947 392.78 51.7573 394.12 51.7573C395.585 51.7573 396.61 51.9947 397.196 52.4695C397.782 52.9444 398.075 53.7861 398.075 54.9948V56.225C398.075 57.4769 397.761 58.3402 397.134 58.815C396.506 59.2467 395.48 59.4625 394.057 59.4625ZM424.404 63.8655C422.939 63.3044 421.327 63.0238 419.569 63.0238C416.681 63.0238 414.065 63.8008 411.721 65.3548C409.377 66.8656 407.514 68.9808 406.133 71.7003C404.751 74.3766 404.061 77.4846 404.061 81.0243C404.061 84.5208 404.751 87.6288 406.133 90.3483C407.514 93.0246 409.398 95.1398 411.784 96.6938C414.17 98.2046 416.849 98.96 419.821 98.96C421.327 98.96 422.751 98.701 424.09 98.183C425.43 97.6219 426.581 96.9528 427.543 96.1758C428.548 95.3988 429.322 94.6218 429.867 93.8448C429.885 93.8184 429.904 93.7922 429.922 93.7662C429.946 93.732 429.969 93.6981 429.992 93.6644V96.8233C429.992 99.1111 429.239 100.903 427.732 102.198C426.225 103.493 423.902 104.14 420.762 104.14C419.883 104.14 418.858 103.967 417.686 103.622C416.556 103.32 415.509 102.975 414.546 102.586C413.584 102.198 412.893 101.939 412.474 101.809C411.553 101.464 410.674 101.507 409.837 101.939C409 102.413 408.393 103.277 408.016 104.529C407.723 105.478 407.807 106.363 408.268 107.183C408.77 108.047 409.649 108.759 410.905 109.32C411.533 109.579 412.453 109.86 413.667 110.162C414.881 110.464 416.158 110.723 417.497 110.939C418.837 111.155 419.925 111.263 420.762 111.263C423.692 111.263 426.434 110.745 428.988 109.709C431.541 108.716 433.592 107.075 435.141 104.788C436.731 102.543 437.527 99.5428 437.527 95.7873V66.9735C437.527 65.808 437.171 64.8584 436.459 64.1245C435.748 63.3907 434.848 63.0238 433.759 63.0238C432.671 63.0238 431.771 63.4123 431.06 64.1893C430.348 64.9231 429.992 65.8512 429.992 66.9735V67.733C429.494 67.1468 428.887 66.5699 428.171 66.0023C427.125 65.1389 425.869 64.4267 424.404 63.8655ZM415.802 71.5708C417.225 70.6211 418.879 70.1463 420.762 70.1463C422.688 70.1463 424.362 70.6211 425.785 71.5708C427.209 72.5204 428.318 73.8154 429.113 75.4558C429.908 77.0961 430.306 78.9523 430.306 81.0243C430.306 83.0531 429.908 84.8877 429.113 86.528C428.318 88.1684 427.209 89.4634 425.785 90.413C424.362 91.3627 422.688 91.8375 420.762 91.8375C418.879 91.8375 417.225 91.3627 415.802 90.413C414.379 89.4634 413.27 88.1684 412.474 86.528C411.679 84.8877 411.281 83.0531 411.281 81.0243C411.281 78.9523 411.679 77.0961 412.474 75.4558C413.27 73.8154 414.379 72.5204 415.802 71.5708ZM452.765 94.3628C452.765 95.4851 452.409 96.4348 451.698 97.2118C450.986 97.9456 450.086 98.3125 448.998 98.3125C447.909 98.3125 447.009 97.9456 446.298 97.2118C445.586 96.4348 445.23 95.4851 445.23 94.3628V67.621C445.23 66.4987 445.586 65.5706 446.298 64.8368C447.009 64.0598 447.909 63.6713 448.998 63.6713C450.086 63.6713 450.986 64.0598 451.698 64.8368C452.409 65.5706 452.765 66.4987 452.765 67.621V94.3628ZM448.935 59.4625C447.512 59.4625 446.507 59.2251 445.921 58.7503C445.335 58.2754 445.042 57.4337 445.042 56.225V54.9948C445.042 53.7429 445.356 52.9012 445.984 52.4695C446.654 51.9947 447.658 51.7573 448.998 51.7573C450.463 51.7573 451.488 51.9947 452.074 52.4695C452.66 52.9444 452.953 53.7861 452.953 54.9948V56.225C452.953 57.4769 452.639 58.3402 452.012 58.815C451.384 59.2467 450.358 59.4625 448.935 59.4625ZM463.774 64.3188H460.885C459.881 64.3188 459.044 64.6641 458.374 65.3548C457.704 66.0023 457.369 66.8225 457.369 67.8153C457.369 68.8513 457.704 69.7146 458.374 70.4053C459.044 71.0959 459.881 71.4413 460.885 71.4413H463.774V89.3123C463.774 91.4275 464.087 93.0894 464.715 94.298C465.343 95.5067 466.118 96.4132 467.038 97.0175C468.001 97.5787 469.006 97.9456 470.052 98.1183C471.141 98.2478 472.124 98.3125 473.003 98.3125C474.468 98.3125 475.829 97.924 477.085 97.147C478.382 96.37 479.031 95.3772 479.031 94.1685C479.031 93.1757 478.78 92.3987 478.278 91.8375C477.817 91.2764 477.294 90.9958 476.708 90.9958C476.164 90.9958 475.682 91.1037 475.264 91.3195C474.845 91.4922 474.385 91.5785 473.882 91.5785C473.422 91.5785 472.982 91.4922 472.564 91.3195C472.187 91.1469 471.873 90.8663 471.622 90.4778C471.413 90.0893 471.308 89.5929 471.308 88.9885V71.4413H475.766C476.771 71.4413 477.608 71.1175 478.278 70.47C478.947 69.7794 479.282 68.9376 479.282 67.9448C479.282 66.9088 478.947 66.0454 478.278 65.3548C477.608 64.6641 476.771 64.3188 475.766 64.3188H471.308V60.1748C471.308 59.0525 470.952 58.1244 470.241 57.3905C469.571 56.6135 468.692 56.225 467.604 56.225C466.515 56.225 465.594 56.6135 464.841 57.3905C464.129 58.1244 463.774 59.0525 463.774 60.1748V64.3188ZM513.701 63.0238C514.789 63.0238 515.689 63.3907 516.401 64.1245C517.113 64.8584 517.468 65.808 517.468 66.9735V94.3628C517.468 95.4851 517.113 96.4348 516.401 97.2118C515.689 97.9456 514.789 98.3125 513.701 98.3125C512.613 98.3125 511.713 97.9456 511.001 97.2118C510.309 96.4557 509.953 95.5361 509.935 94.4531C509.421 95.0273 508.793 95.6015 508.05 96.1758C507.046 96.9528 505.853 97.6219 504.471 98.183C503.132 98.701 501.667 98.96 500.076 98.96C497.188 98.96 494.572 98.2046 492.228 96.6938C489.884 95.1398 488.021 93.0246 486.64 90.3483C485.3 87.6288 484.63 84.5208 484.63 81.0243C484.63 77.4846 485.3 74.3766 486.64 71.7003C488.021 68.9808 489.863 66.8656 492.165 65.3548C494.467 63.8008 497.021 63.0238 499.825 63.0238C501.625 63.0238 503.278 63.3044 504.785 63.8655C506.292 64.4267 507.59 65.1389 508.678 66.0023C509.143 66.3571 509.561 66.7157 509.934 67.0778V66.9735C509.934 65.8512 510.29 64.9231 511.001 64.1893C511.713 63.4123 512.613 63.0238 513.701 63.0238ZM501.018 91.8375C502.86 91.8375 504.471 91.3627 505.853 90.413C507.234 89.4634 508.301 88.1684 509.055 86.528C509.85 84.8877 510.248 83.0531 510.248 81.0243C510.248 78.9523 509.85 77.0961 509.055 75.4558C508.301 73.8154 507.234 72.5204 505.853 71.5708C504.471 70.6211 502.86 70.1463 501.018 70.1463C499.218 70.1463 497.627 70.6211 496.246 71.5708C494.865 72.5204 493.776 73.8154 492.981 75.4558C492.228 77.0961 491.851 78.9523 491.851 81.0243C491.851 83.0531 492.228 84.8877 492.981 86.528C493.776 88.1684 494.865 89.4634 496.246 90.413C497.627 91.3627 499.218 91.8375 501.018 91.8375ZM532.659 97.2118C533.412 96.4348 533.789 95.4851 533.789 94.3628V54.3473C533.789 53.2249 533.433 52.2969 532.721 51.563C532.052 50.786 531.173 50.3975 530.084 50.3975C528.996 50.3975 528.075 50.786 527.322 51.563C526.61 52.2969 526.254 53.2249 526.254 54.3473V94.3628C526.254 95.4851 526.61 96.4348 527.322 97.2118C528.033 97.9456 528.912 98.3125 529.959 98.3125C531.047 98.3125 531.947 97.9456 532.659 97.2118Z" fill="#F4A52E"/>
<path d="M171.475 63.2436C173.861 63.2436 175.933 63.4948 177.691 63.9971C179.491 64.4994 180.872 65.211 181.835 66.1319C182.84 67.0109 183.342 68.0783 183.342 69.3341C183.342 70.1712 183.091 70.9665 182.589 71.72C182.086 72.4316 181.354 72.7874 180.391 72.7874C179.721 72.7874 179.156 72.7037 178.696 72.5362C178.277 72.327 177.9 72.0758 177.566 71.7828C177.231 71.4898 176.833 71.2177 176.373 70.9665C175.954 70.7154 175.305 70.527 174.426 70.4015C173.589 70.234 172.961 70.1503 172.543 70.1503C170.408 70.1503 168.587 70.6107 167.08 71.5316C165.615 72.4525 164.485 73.7083 163.689 75.2989C162.894 76.8477 162.496 78.6476 162.496 80.6987C162.496 82.7079 162.894 84.5078 163.689 86.0984C164.527 87.6472 165.657 88.882 167.08 89.8029C168.545 90.7238 170.219 91.1843 172.103 91.1843C173.149 91.1843 174.049 91.1215 174.803 90.9959C175.556 90.8703 176.184 90.6819 176.687 90.4308C177.273 90.0959 177.796 89.7401 178.256 89.3634C178.717 88.9867 179.407 88.7983 180.328 88.7983C181.417 88.7983 182.254 89.1541 182.84 89.8657C183.426 90.5354 183.719 91.3726 183.719 92.3772C183.719 93.4237 183.133 94.3864 181.961 95.2655C180.789 96.1026 179.24 96.7933 177.314 97.3375C175.431 97.8398 173.38 98.0909 171.161 98.0909C167.854 98.0909 164.987 97.3375 162.559 95.8306C160.131 94.2818 158.248 92.1889 156.908 89.5518C155.611 86.9147 154.962 83.9636 154.962 80.6987C154.962 77.2663 155.653 74.2524 157.034 71.6572C158.457 69.0201 160.404 66.969 162.873 65.504C165.385 63.9971 168.252 63.2436 171.475 63.2436Z" fill="#F4A52E"/>
<path d="M206.795 63.2436C209.809 63.2436 212.09 63.8924 213.639 65.1901C215.23 66.4877 216.318 68.2248 216.904 70.4015C217.49 72.5362 217.783 74.9222 217.783 77.5593V93.633C217.783 94.7213 217.427 95.6422 216.716 96.3956C216.004 97.1072 215.104 97.463 214.016 97.463C212.928 97.463 212.028 97.1072 211.316 96.3956C210.604 95.6422 210.249 94.7213 210.249 93.633V77.5593C210.249 76.1779 210.081 74.9431 209.746 73.8548C209.411 72.7246 208.804 71.8246 207.925 71.1549C207.046 70.4852 205.791 70.1503 204.158 70.1503C202.568 70.1503 201.207 70.4852 200.077 71.1549C198.947 71.8246 198.089 72.7246 197.503 73.8548C196.959 74.9431 196.686 76.1779 196.686 77.5593V93.633C196.686 94.7213 196.331 95.6422 195.619 96.3956C194.907 97.1072 194.007 97.463 192.919 97.463C191.831 97.463 190.931 97.1072 190.219 96.3956C189.508 95.6422 189.152 94.7213 189.152 93.633V54.8301C189.152 53.7417 189.508 52.8418 190.219 52.1302C190.931 51.3767 191.831 51 192.919 51C194.007 51 194.907 51.3767 195.619 52.1302C196.331 52.8418 196.686 53.7417 196.686 54.8301V70.4015L195.745 70.2131C196.121 69.5015 196.645 68.748 197.314 67.9527C197.984 67.1156 198.8 66.3412 199.763 65.6296C200.726 64.918 201.793 64.3529 202.965 63.9343C204.137 63.4739 205.414 63.2436 206.795 63.2436Z" fill="#F4A52E"/>
<path d="M241.764 98.0909C238.206 98.0909 235.109 97.3584 232.472 95.8933C229.876 94.3864 227.867 92.3563 226.444 89.8029C225.063 87.2495 224.372 84.3613 224.372 81.1382C224.372 77.3709 225.125 74.1687 226.632 71.5316C228.181 68.8527 230.19 66.8016 232.66 65.3784C235.13 63.9552 237.746 63.2436 240.508 63.2436C242.643 63.2436 244.652 63.6832 246.536 64.5622C248.462 65.4412 250.157 66.6551 251.622 68.2039C253.087 69.7108 254.238 71.4688 255.075 73.4781C255.954 75.4873 256.394 77.6221 256.394 79.8824C256.352 80.887 255.954 81.7033 255.201 82.3312C254.447 82.959 253.568 83.273 252.564 83.273H228.579L226.695 76.9942H249.738L248.357 78.2499V76.5547C248.273 75.3408 247.834 74.2524 247.038 73.2897C246.285 72.327 245.322 71.5735 244.15 71.0293C243.02 70.4433 241.806 70.1503 240.508 70.1503C239.253 70.1503 238.081 70.3177 236.992 70.6526C235.904 70.9875 234.962 71.5526 234.167 72.3479C233.372 73.1432 232.744 74.2106 232.283 75.5501C231.823 76.8895 231.593 78.5848 231.593 80.6359C231.593 82.8962 232.053 84.8217 232.974 86.4124C233.937 87.9611 235.151 89.1541 236.616 89.9913C238.123 90.7866 239.713 91.1843 241.387 91.1843C242.936 91.1843 244.171 91.0587 245.092 90.8075C246.013 90.5564 246.745 90.2634 247.29 89.9285C247.876 89.5518 248.399 89.2378 248.859 88.9867C249.613 88.6099 250.324 88.4216 250.994 88.4216C251.915 88.4216 252.668 88.7355 253.254 89.3634C253.882 89.9913 254.196 90.7238 254.196 91.561C254.196 92.6912 253.61 93.7167 252.438 94.6376C251.35 95.5585 249.822 96.3747 247.855 97.0863C245.887 97.756 243.857 98.0909 241.764 98.0909Z" fill="#F4A52E"/>
<path d="M284.387 90.5564C285.392 90.5564 286.229 90.8912 286.899 91.561C287.569 92.1889 287.903 93.0051 287.903 94.0097C287.903 94.9725 287.569 95.7887 286.899 96.4584C286.229 97.1282 285.392 97.463 284.387 97.463H264.17C263.123 97.463 262.286 97.0863 261.658 96.3329C261.03 95.5794 260.737 94.8259 260.779 94.0725C260.821 93.4446 260.905 92.9004 261.03 92.44C261.156 91.9377 261.47 91.3726 261.972 90.7447L277.606 70.527L277.481 71.4061H264.735C263.73 71.4061 262.893 71.0712 262.223 70.4015C261.554 69.7317 261.219 68.8945 261.219 67.8899C261.219 66.9272 261.554 66.1319 262.223 65.504C262.893 64.8343 263.73 64.4994 264.735 64.4994H284.073C285.036 64.4994 285.852 64.8552 286.522 65.5668C287.192 66.2784 287.485 67.1783 287.401 68.2667C287.359 68.6853 287.276 69.1038 287.15 69.5224C287.066 69.941 286.794 70.4433 286.334 71.0293L270.951 90.9331V90.5564H284.387Z" fill="#F4A52E"/>
<path d="M48.7631 20.8588C40.6135 20.9287 32.1761 19.0704 26.9978 29.488C21.4648 40.625 18.8599 64.7572 30.0559 69.2178C39.8253 73.111 61.3187 64.3379 84.6998 74.0977C108.081 83.8533 117.433 142.391 135.99 142.465C140.814 142.486 140.743 147.082 135.994 147.119C112.688 147.304 102.461 122.876 98.5204 122.876C98.5204 122.876 102.461 147.271 98.5204 147.271H83.6011C79.6603 147.271 82.757 134.605 82.757 129.725V122.872C82.757 122.872 76.4792 127.879 59.364 127.879C46.4262 127.883 35.4667 122.876 35.4667 122.876C35.4667 122.876 38.1405 147.271 34.1997 147.271H20.7082C14.0955 147.271 21.3624 130.773 20.7082 122.876C20.3062 118.017 18.6984 103.319 15.8846 98.4848C9.08269 86.7804 4.99602 51.1207 8.28269 35.6464C11.3605 21.1507 20.586 8.37744 26.7062 4.772C32.6923 1.24056 37.9889 -1.39467 51.104 0.804777C58.099 1.97644 65.2556 12.8174 62.4931 18.3757C60.834 21.7057 54.8478 20.8053 48.7631 20.8588Z" fill="#F4A52E"/>
<path d="M51.1015 8.23749C51.102 8.88351 50.8565 9.50329 50.419 9.96048C49.9815 10.4177 49.3878 10.6748 48.7686 10.6754C48.1493 10.6759 47.5552 10.4198 47.1169 9.96339C46.6787 9.50697 46.4322 8.88762 46.4316 8.2416C46.4311 7.59558 46.6766 6.9758 47.1141 6.5186C47.5517 6.06141 48.1453 5.80426 48.7646 5.80371C49.3839 5.80317 49.978 6.05928 50.4162 6.5157C50.8545 6.97212 51.101 7.59146 51.1015 8.23749V8.23749Z" fill="#282828"/>
<path d="M40.2672 75.2652C40.3552 75.5622 40.3862 75.8743 40.3586 76.1837C40.3309 76.4932 40.2451 76.7939 40.1061 77.0688C39.967 77.3437 39.7774 77.5873 39.5481 77.7857C39.3188 77.9841 39.0543 78.1335 38.7696 78.2252C38.485 78.317 38.1858 78.3494 37.8892 78.3206C37.5926 78.2917 37.3043 78.2022 37.0408 78.0572C36.7773 77.9121 36.5438 77.7143 36.3536 77.4751C36.1634 77.2359 36.0202 76.96 35.9322 76.663C35.7546 76.0633 35.8125 75.4146 36.0933 74.8595C36.3742 74.3044 36.8549 73.8884 37.4298 73.703C38.0046 73.5177 38.6265 73.5781 39.1586 73.8711C39.6907 74.1641 40.0895 74.6656 40.2672 75.2652V75.2652ZM55.534 80.3959C55.6593 80.8186 55.7035 81.263 55.6641 81.7035C55.6247 82.144 55.5026 82.5722 55.3046 82.9635C55.1066 83.3548 54.8367 83.7016 54.5103 83.984C54.1838 84.2665 53.8072 84.4791 53.402 84.6098C52.9968 84.7404 52.5709 84.7866 52.1486 84.7455C51.7263 84.7044 51.3159 84.577 50.9408 84.3705C50.5657 84.1639 50.2333 83.8824 49.9625 83.5418C49.6917 83.2013 49.4879 82.8084 49.3627 82.3857C49.2374 81.963 49.1932 81.5186 49.2326 81.0781C49.2719 80.6376 49.3941 80.2094 49.5921 79.8181C49.79 79.4268 50.06 79.08 50.3864 78.7976C50.7129 78.5151 51.0894 78.3024 51.4947 78.1718C51.8999 78.0411 52.3258 77.995 52.7481 78.0361C53.1704 78.0772 53.5808 78.2046 53.9559 78.4111C54.331 78.6177 54.6634 78.8992 54.9342 79.2398C55.205 79.5803 55.4088 79.9732 55.534 80.3959V80.3959ZM49.1301 74.5335C49.265 74.9865 49.2218 75.4769 49.01 75.8967C48.7983 76.3165 48.4354 76.6313 48.0011 76.772C47.5668 76.9126 47.0968 76.8675 46.6944 76.6467C46.2919 76.4258 45.9901 76.0472 45.8553 75.5941C45.7885 75.3698 45.7648 75.134 45.7854 74.9001C45.806 74.6662 45.8706 74.4388 45.9754 74.2309C46.0803 74.0231 46.2233 73.8388 46.3964 73.6886C46.5695 73.5384 46.7693 73.4253 46.9844 73.3556C47.1994 73.286 47.4255 73.2612 47.6497 73.2827C47.8739 73.3042 48.0918 73.3716 48.2911 73.4809C48.4903 73.5903 48.667 73.7396 48.811 73.9201C48.9549 74.1007 49.0634 74.3091 49.1301 74.5335V74.5335ZM58.8168 73.1727C58.8928 73.3889 58.9259 73.619 58.914 73.849C58.9021 74.0789 58.8454 74.304 58.7475 74.5104C58.6496 74.7168 58.5125 74.9003 58.3445 75.0497C58.1765 75.1991 57.9811 75.3112 57.7702 75.3794C57.5593 75.4475 57.3373 75.4701 57.1178 75.4459C56.8982 75.4218 56.6857 75.3512 56.4931 75.2386C56.3005 75.126 56.1319 74.9738 55.9975 74.7911C55.8631 74.6083 55.7658 74.399 55.7114 74.1758C55.6086 73.754 55.665 73.3071 55.8689 72.9274C56.0729 72.5478 56.4088 72.2643 56.8073 72.1355C57.2059 72.0068 57.6366 72.0426 58.0105 72.2356C58.3845 72.4287 58.6731 72.7641 58.8168 73.1727ZM70.0206 74.6116C70.1431 75.0069 70.1891 75.4236 70.1559 75.8376C70.1228 76.2516 70.0111 76.6546 69.8275 77.0232C69.6438 77.3918 69.3917 77.7187 69.086 77.9849C68.7802 78.251 68.4268 78.4512 68.0463 78.5737C67.6658 78.6962 67.2657 78.7387 66.8693 78.6986C66.473 78.6585 66.0882 78.5367 65.7373 78.3402C65.3864 78.1437 65.0765 77.8764 64.8254 77.5539C64.5744 77.2314 64.3872 76.8601 64.2748 76.4616C64.0518 75.6704 64.1363 74.8194 64.5103 74.0928C64.8842 73.3662 65.5174 72.8224 66.2727 72.5792C67.0281 72.336 67.8449 72.4129 68.5464 72.7932C69.2478 73.1736 69.7774 73.8269 70.0206 74.6116V74.6116ZM88.7515 82.7475C88.8629 83.1257 88.8644 83.5299 88.7558 83.9091C88.6471 84.2882 88.4332 84.6253 88.141 84.8777C87.8489 85.1301 87.4916 85.2865 87.1142 85.3272C86.7369 85.3678 86.3565 85.291 86.021 85.1062C85.6856 84.9215 85.4101 84.6372 85.2294 84.2892C85.0488 83.9413 84.971 83.5453 85.0059 83.1512C85.0409 82.7572 85.187 82.3828 85.4257 82.0753C85.6645 81.7679 85.9853 81.5411 86.3476 81.4237C86.5887 81.3455 86.8423 81.3178 87.0937 81.3421C87.3452 81.3663 87.5896 81.4421 87.8129 81.5651C88.0362 81.6881 88.2341 81.8558 88.3951 82.0587C88.5562 82.2616 88.6773 82.4957 88.7515 82.7475V82.7475ZM65.6817 82.7475C65.7932 83.1257 65.7947 83.5299 65.686 83.9091C65.5774 84.2882 65.3634 84.6253 65.0713 84.8777C64.7791 85.1301 64.4218 85.2865 64.0445 85.3272C63.6672 85.3678 63.2868 85.291 62.9513 85.1062C62.6158 84.9215 62.3404 84.6372 62.1597 84.2892C61.979 83.9413 61.9012 83.5453 61.9362 83.1512C61.9711 82.7572 62.1172 82.3828 62.356 82.0753C62.5948 81.7679 62.9156 81.5411 63.2778 81.4237C63.7649 81.267 64.2916 81.3184 64.7424 81.5666C65.1931 81.8148 65.531 82.2395 65.6817 82.7475ZM82.3042 77.3784C82.3788 77.6299 82.4051 77.8944 82.3816 78.1566C82.3582 78.4187 82.2855 78.6735 82.1676 78.9064C82.0498 79.1393 81.8892 79.3457 81.6949 79.5138C81.5006 79.6819 81.2764 79.8084 81.0353 79.8861C80.7941 79.9639 80.5406 79.9913 80.2893 79.9668C80.038 79.9424 79.7937 79.8665 79.5705 79.7436C79.3473 79.6207 79.1495 79.4531 78.9883 79.2504C78.8272 79.0477 78.7059 78.8139 78.6314 78.5624C78.4809 78.0543 78.53 77.5046 78.768 77.0343C79.006 76.564 79.4133 76.2116 79.9003 76.0546C80.3874 75.8976 80.9143 75.9488 81.3651 76.1971C81.8159 76.4453 82.1537 76.8703 82.3042 77.3784V77.3784ZM76.389 78.1965C76.5185 78.5736 76.5734 78.9743 76.5505 79.3742C76.5276 79.7741 76.4274 80.165 76.2558 80.5235C76.0842 80.8819 75.8448 81.2003 75.5521 81.4597C75.2593 81.719 74.9193 81.9138 74.5525 82.0324C74.1856 82.151 73.7996 82.1909 73.4176 82.1496C73.0356 82.1084 72.6655 81.987 72.3297 81.7926C71.9939 81.5982 71.6993 81.3349 71.4637 81.0185C71.228 80.7022 71.0562 80.3394 70.9585 79.9519C70.7721 79.2121 70.8666 78.4258 71.2224 77.757C71.5782 77.0881 72.1677 76.5883 72.8681 76.3619C73.5685 76.1355 74.3257 76.1999 74.9817 76.5417C75.6376 76.8835 76.1418 77.4763 76.389 78.1965V78.1965Z" fill="#C98622"/>
</g>
<defs>
<clipPath id="clip0_535_29">
<rect width="583" height="148" fill="white"/>
</clipPath>
</defs>
</svg>
